<svg width="301" height="120" viewBox="0 0 301 120" fill="none" xmlns="http://www.w3.org/2000/svg">
<path d="M91.1296 3.91915H103.133L85.3233 43H68.0719L65.2246 11.2887L51.9929 43H34.6857L29.6052 3.91915H41.9994L45.1817 35.0722L58.2459 3.91915H74.7715L77.7863 35.1838L91.1296 3.91915ZM130.572 13.0752C135.15 13.0752 138.406 14.3221 140.342 16.8158C142.314 19.3096 142.929 22.9199 142.184 27.6468L139.728 43H128.618L130.516 31.0524C131 28.1493 130.795 25.9533 129.902 24.4645C129.046 22.9757 127.333 22.2313 124.765 22.2313C121.899 22.2313 119.573 23.0874 117.787 24.7995C116 26.5116 114.883 28.8378 114.437 31.7782L112.65 43H101.54L108.072 1.90927H119.182L116.447 18.9374C119.945 15.0293 124.654 13.0752 130.572 13.0752ZM170.026 13.0752C175.907 13.1125 180.224 14.3407 182.978 16.76C185.733 19.1421 186.719 22.8454 185.937 27.8701L183.537 43H173.208L174.101 37.3612C170.305 41.567 165.169 43.67 158.692 43.67C154.673 43.67 151.658 42.9442 149.648 41.4926C147.638 40.0038 146.633 37.9939 146.633 35.463C146.633 32.1504 148.196 29.7311 151.323 28.2051C154.487 26.6791 159.102 25.73 165.169 25.3578L175.218 24.7437C175.292 23.4037 174.79 22.3802 173.711 21.673C172.668 20.9286 171.049 20.5564 168.853 20.5564C164.983 20.5564 162.414 21.4311 161.149 23.1804H150.765C151.286 21.2822 152.197 19.6445 153.5 18.2674C154.803 16.8903 156.348 15.8481 158.134 15.1409C159.958 14.3965 161.837 13.8755 163.773 13.5777C165.746 13.2427 167.83 13.0752 170.026 13.0752ZM162.712 36.1888C165.913 36.1888 168.593 35.6677 170.752 34.6255C172.91 33.5834 174.083 32.4482 174.269 31.2199L174.325 30.7733L165.671 31.3316C162.917 31.5177 160.888 31.8154 159.586 32.2249C158.283 32.597 157.632 33.2298 157.632 34.1231C157.632 35.5002 159.325 36.1888 162.712 36.1888ZM210.131 22.0638L208.903 29.9358C208.605 31.6852 208.735 32.8948 209.293 33.5648C209.889 34.1975 211.192 34.5139 213.201 34.5139C214.579 34.5139 216.067 34.4022 217.668 34.1789L216.216 43.1117C213.797 43.4839 211.471 43.67 209.238 43.67C204.548 43.67 201.235 42.7581 199.3 40.9343C197.402 39.1105 196.806 36.0027 197.513 31.6107L199.021 22.0638H190.758L192.042 13.8568H198.016C199.058 13.8568 199.821 13.6708 200.305 13.2986C200.826 12.8891 201.161 12.2564 201.31 11.4003L202.091 6.48732H212.587L211.471 13.7452H220.906L219.566 22.0638H210.131ZM226.056 20.2773L228.624 3.91915H239.399L238.45 10.0046L230.746 20.2773H226.056ZM264.317 23.1804C263.982 22.3988 263.07 21.7661 261.581 21.2822C260.13 20.7984 258.213 20.5564 255.831 20.5564C252.444 20.5564 250.75 21.0775 250.75 22.1197C250.75 22.8641 251.588 23.3851 253.263 23.6829L264.261 25.6369C267.537 26.1952 269.975 27.0885 271.575 28.3168C273.175 29.545 273.976 31.2199 273.976 33.3414C273.976 35.8352 273.027 37.8823 271.128 39.4827C269.267 41.046 266.885 42.1439 263.982 42.7767C261.079 43.3722 257.636 43.67 253.654 43.67C248.108 43.67 243.828 42.8883 240.813 41.3251C237.798 39.7619 236.346 37.1937 236.458 33.6206L246.787 33.2856C247.233 35.221 250.285 36.1888 255.943 36.1888C260.446 36.1888 262.698 35.7235 262.698 34.793C262.698 34.0114 261.823 33.4717 260.074 33.174L248.182 30.9966C242.376 29.9544 239.473 27.3677 239.473 23.2363C239.473 20.817 240.366 18.8257 242.153 17.2625C243.939 15.662 246.135 14.564 248.741 13.9685C251.346 13.373 254.324 13.0752 257.673 13.0752C262.661 13.0752 266.736 13.8568 269.9 15.4201C273.064 16.9833 274.646 19.4398 274.646 22.7896L264.317 23.1804Z" fill="#3B4FFE"/>
<path d="M120.882 37.9191L119.487 46.9077H105.697L100.951 77H89.9526L94.6981 46.9077H80.9082L82.3039 37.9191H120.882ZM145.355 47.0752C153.172 47.0752 156.41 51.43 155.07 60.1394L152.39 77H141.894L144.071 63.3217C144.443 60.7908 144.313 58.8925 143.68 57.6271C143.085 56.3616 141.782 55.7289 139.772 55.7289C137.651 55.7289 135.92 56.3802 134.58 57.6829C133.24 58.9484 132.328 60.6977 131.845 62.9309L129.611 77H119.115L125.647 35.9093H136.143L133.575 52.0441C136.553 48.7315 140.48 47.0752 145.355 47.0752ZM179.416 47.0752C184.515 47.0752 188.274 48.229 190.694 50.5367C193.15 52.8071 194.006 56.3244 193.262 61.0885L190.694 77H180.867L181.649 71.9753C178.448 75.7717 174.187 77.67 168.864 77.67C165.552 77.67 163.021 76.9628 161.271 75.5484C159.559 74.0969 158.703 72.1986 158.703 69.8538C158.703 66.3923 160.099 63.8428 162.89 62.2051C165.682 60.5674 169.72 59.5625 175.005 59.1903L183.157 58.5762C183.305 57.199 182.97 56.1383 182.152 55.3939C181.37 54.6495 180.086 54.2773 178.299 54.2773C175.098 54.2773 173.07 55.245 172.214 57.1804H162.555C163.114 54.6867 164.286 52.6582 166.073 51.095C167.896 49.5317 169.906 48.471 172.102 47.9127C174.298 47.3544 176.736 47.0752 179.416 47.0752ZM173.163 70.5237C175.508 70.5237 177.518 69.9841 179.193 68.9047C180.905 67.7881 181.872 66.5598 182.096 65.2199L182.207 64.55L175.452 65.0524C171.283 65.3502 169.199 66.4296 169.199 68.2906C169.199 69.7793 170.52 70.5237 173.163 70.5237ZM215.076 55.5614L213.569 65.0524C213.346 66.504 213.457 67.5089 213.904 68.0672C214.351 68.6255 215.374 68.9047 216.975 68.9047C218.24 68.9047 219.543 68.793 220.883 68.5697L219.543 77.0558C217.272 77.3908 215.207 77.5583 213.346 77.5583C209.177 77.5583 206.218 76.7395 204.469 75.1018C202.757 73.4269 202.217 70.5982 202.85 66.6157L204.58 55.5614H197.546L198.774 47.8568H203.687C205.436 47.8568 206.423 47.1125 206.646 45.6237L207.428 40.6548H217.421L216.305 47.7452H224.177L222.948 55.5614H215.076Z" fill="white"/>
<path d="M66.1388 71.9191V70.9191H65.5032L65.2334 71.4946L66.1388 71.9191ZM86.4608 71.9191L87.4483 72.0771L87.6336 70.9191H86.4608V71.9191ZM80.2079 111V112H81.0606L81.1954 111.158L80.2079 111ZM69.0978 111L68.1103 110.842L67.9252 112H69.0978V111ZM74.3458 78.1721L75.3332 78.3299L73.455 77.7176L74.3458 78.1721ZM57.5968 111V112H58.2093L58.4876 111.454L57.5968 111ZM42.1878 111L41.2077 111.198L41.3699 112H42.1878V111ZM35.5441 78.1721L36.5242 77.9737L34.5564 78.0159L35.5441 78.1721ZM30.3519 111V112H31.2062L31.3396 111.156L30.3519 111ZM19.2418 111L18.2541 110.843L18.0707 112H19.2418V111ZM25.4389 71.9191V70.9191H24.585L24.4512 71.7625L25.4389 71.9191ZM45.5934 71.9191L46.5796 71.7536L46.4396 70.9191H45.5934V71.9191ZM51.0089 104.189L50.0227 104.354L50.5533 107.516L51.9143 104.613L51.0089 104.189ZM66.1388 72.9191H86.4608V70.9191H66.1388V72.9191ZM85.4734 71.7612L79.2205 110.842L81.1954 111.158L87.4483 72.0771L85.4734 71.7612ZM80.2079 110H69.0978V112H80.2079V110ZM70.0852 111.158L75.3332 78.3299L73.3583 78.0142L68.1103 110.842L70.0852 111.158ZM73.455 77.7176L56.7061 110.546L58.4876 111.454L75.2365 78.6266L73.455 77.7176ZM57.5968 110H42.1878V112H57.5968V110ZM43.1679 110.802L36.5242 77.9737L34.5639 78.3704L41.2077 111.198L43.1679 110.802ZM34.5564 78.0159L29.3642 110.844L31.3396 111.156L36.5318 78.3283L34.5564 78.0159ZM30.3519 110H19.2418V112H30.3519V110ZM20.2294 111.157L26.4265 72.0758L24.4512 71.7625L18.2541 110.843L20.2294 111.157ZM25.4389 72.9191H45.5934V70.9191H25.4389V72.9191ZM44.6072 72.0847L50.0227 104.354L51.9951 104.023L46.5796 71.7536L44.6072 72.0847ZM51.9143 104.613L67.0442 72.3437L65.2334 71.4946L50.1035 103.764L51.9143 104.613ZM127.257 85.2625L126.559 85.9788L126.564 85.9833L127.257 85.2625ZM130.16 98.6058L129.172 98.4492L129.172 98.4498L130.16 98.6058ZM129.992 99.6666V100.667H130.847L130.98 99.8225L129.992 99.6666ZM100.57 99.6666V98.6666H99.2622L99.605 99.9287L100.57 99.6666ZM117.877 102.235L117.917 101.236L117.575 101.222L117.296 101.421L117.877 102.235ZM128.987 102.681L129.868 103.155L130.627 101.746L129.028 101.682L128.987 102.681ZM121.45 109.381L121.854 110.296L121.862 110.292L121.45 109.381ZM94.5405 108.432L95.0738 107.586L95.0738 107.586L94.5405 108.432ZM95.8245 85.4858L95.2616 84.6593L95.2583 84.6615L95.8245 85.4858ZM101.296 93.0786L100.417 92.6013L99.6146 94.0786H101.296V93.0786ZM120.111 93.0786V94.0786H121.165L121.109 93.0261L120.111 93.0786ZM117.877 89.7847L117.366 90.6442L117.38 90.6523L117.394 90.6599L117.877 89.7847ZM113.02 82.0752C119.546 82.0752 123.97 83.4572 126.559 85.9788L127.954 84.5461C124.811 81.4848 119.744 80.0752 113.02 80.0752V82.0752ZM126.564 85.9833C129.125 88.446 130.117 92.4885 129.172 98.4492L131.148 98.7624C132.138 92.5149 131.195 87.6619 127.95 84.5416L126.564 85.9833ZM129.172 98.4498L129.005 99.5106L130.98 99.8225L131.148 98.7617L129.172 98.4498ZM129.992 98.6666H100.57V100.667H129.992V98.6666ZM99.605 99.9287C100.099 101.746 101.296 103.093 103.079 103.958C104.824 104.804 107.12 105.189 109.894 105.189V103.189C107.27 103.189 105.314 102.819 103.952 102.158C102.627 101.516 101.86 100.601 101.535 99.4044L99.605 99.9287ZM109.894 105.189C113.492 105.189 116.394 104.523 118.459 103.048L117.296 101.421C115.713 102.552 113.293 103.189 109.894 103.189V105.189ZM117.837 103.234L128.947 103.681L129.028 101.682L117.917 101.236L117.837 103.234ZM128.107 102.207C126.663 104.889 124.332 106.982 121.039 108.47L121.862 110.292C125.492 108.653 128.185 106.28 129.868 103.155L128.107 102.207ZM121.047 108.466C117.747 109.921 113.65 110.67 108.721 110.67V112.67C113.842 112.67 118.231 111.893 121.854 110.296L121.047 108.466ZM108.721 110.67C102.794 110.67 98.2783 109.606 95.0738 107.586L94.0072 109.278C97.6511 111.575 102.589 112.67 108.721 112.67V110.67ZM95.0738 107.586C91.9684 105.628 90.4041 102.689 90.4041 98.6058H88.4041C88.4041 103.306 90.2641 106.918 94.0072 109.278L95.0738 107.586ZM90.4041 98.6058C90.4041 93.0835 92.4174 89.0395 96.3908 86.31L95.2583 84.6615C90.6711 87.8128 88.4041 92.5155 88.4041 98.6058H90.4041ZM96.3874 86.3123C100.488 83.5196 106.003 82.0752 113.02 82.0752V80.0752C105.745 80.0752 99.796 81.5712 95.2616 84.6593L96.3874 86.3123ZM111.848 87.5564C106.311 87.5564 102.316 89.1052 100.417 92.6013L102.175 93.556C103.551 91.0224 106.591 89.5564 111.848 89.5564V87.5564ZM101.296 94.0786H120.111V92.0786H101.296V94.0786ZM121.109 93.0261C121.014 91.2132 120.027 89.8302 118.361 88.9094L117.394 90.6599C118.556 91.3024 119.058 92.1153 119.112 93.1312L121.109 93.0261ZM118.388 88.9251C116.787 87.9727 114.566 87.5564 111.848 87.5564V89.5564C114.415 89.5564 116.214 89.959 117.366 90.6442L118.388 88.9251ZM195.175 84.76L194.372 85.3561L194.378 85.3639L195.175 84.76ZM196.962 94.9769L197.949 95.1318L197.95 95.1289L196.962 94.9769ZM194.449 111V112H195.305L195.437 111.155L194.449 111ZM183.339 111L182.352 110.842L182.166 112H183.339V111ZM185.461 97.7683L184.474 97.6066L184.473 97.61L185.461 97.7683ZM184.791 92.297L185.65 91.7859L185.65 91.7859L184.791 92.297ZM174.518 92.7437L173.795 92.0528L173.795 92.0532L174.518 92.7437ZM171.447 99.7782L172.435 99.9354L172.435 99.9348L171.447 99.7782ZM169.661 111V112H170.514L170.648 111.157L169.661 111ZM158.551 111L157.563 110.842L157.378 112H158.551V111ZM160.672 97.7683L159.685 97.6066L159.685 97.61L160.672 97.7683ZM160.002 92.297L160.862 91.7859L160.862 91.7859L160.002 92.297ZM149.73 92.7437L149.007 92.0528L149.006 92.0532L149.73 92.7437ZM146.659 99.7782L147.646 99.9354L147.647 99.9348L146.659 99.7782ZM144.872 111V112H145.726L145.86 111.157L144.872 111ZM133.762 111L132.775 110.844L132.591 112H133.762V111ZM138.396 81.7452V80.7452H137.542L137.408 81.5887L138.396 81.7452ZM148.725 81.7452L149.712 81.9025L149.896 80.7452H148.725V81.7452ZM147.72 88.054L146.732 87.8966L148.528 88.6425L147.72 88.054ZM168.656 83.0293L169.245 82.2213L169.245 82.2213L168.656 83.0293ZM172.117 88.6123L171.14 88.8228L171.631 91.1021L172.944 89.1754L172.117 88.6123ZM186.354 82.0752C190.207 82.0752 192.795 83.2321 194.372 85.3561L195.978 84.1639C193.907 81.3749 190.615 80.0752 186.354 80.0752V82.0752ZM194.378 85.3639C196.016 87.5261 196.62 90.6213 195.973 94.8248L197.95 95.1289C198.643 90.623 198.056 86.9069 195.972 84.1561L194.378 85.3639ZM195.974 94.8219L193.461 110.845L195.437 111.155L197.949 95.1318L195.974 94.8219ZM194.449 110H183.339V112H194.449V110ZM184.326 111.158L186.448 97.9267L184.473 97.61L182.352 110.842L184.326 111.158ZM186.447 97.9301C186.841 95.5267 186.632 93.4377 185.65 91.7859L183.931 92.8081C184.587 93.9106 184.824 95.4691 184.474 97.6066L186.447 97.9301ZM185.65 91.7859C184.597 90.0142 182.752 89.2313 180.436 89.2313V91.2313C182.289 91.2313 183.347 91.8255 183.931 92.8081L185.65 91.7859ZM180.436 89.2313C177.822 89.2313 175.587 90.1778 173.795 92.0528L175.241 93.4345C176.65 91.9598 178.36 91.2313 180.436 91.2313V89.2313ZM173.795 92.0532C172.048 93.8827 170.964 96.4404 170.46 99.6216L172.435 99.9348C172.898 97.012 173.861 94.88 175.241 93.4341L173.795 92.0532ZM170.46 99.621L168.673 110.843L170.648 111.157L172.435 99.9354L170.46 99.621ZM169.661 110H158.551V112H169.661V110ZM159.538 111.158L161.66 97.9267L159.685 97.61L157.563 110.842L159.538 111.158ZM161.659 97.9301C162.053 95.5267 161.844 93.4377 160.862 91.7859L159.143 92.8081C159.798 93.9106 160.036 95.4691 159.685 97.6066L161.659 97.9301ZM160.862 91.7859C159.808 90.0142 157.963 89.2313 155.647 89.2313V91.2313C157.5 91.2313 158.558 91.8255 159.143 92.8081L160.862 91.7859ZM155.647 89.2313C153.033 89.2313 150.798 90.1778 149.007 92.0528L150.453 93.4345C151.862 91.9598 153.572 91.2313 155.647 91.2313V89.2313ZM149.006 92.0532C147.26 93.8827 146.176 96.4404 145.671 99.6216L147.647 99.9348C148.11 97.012 149.073 94.88 150.453 93.4341L149.006 92.0532ZM145.671 99.621L143.885 110.843L145.86 111.157L147.646 99.9354L145.671 99.621ZM144.872 110H133.762V112H144.872V110ZM134.75 111.156L139.384 81.9016L137.408 81.5887L132.775 110.844L134.75 111.156ZM138.396 82.7452H148.725V80.7452H138.396V82.7452ZM147.737 81.5879L146.732 87.8966L148.707 88.2113L149.712 81.9025L147.737 81.5879ZM148.528 88.6425C151.723 84.2532 156.036 82.0752 161.565 82.0752V80.0752C155.408 80.0752 150.49 82.5497 146.911 87.4654L148.528 88.6425ZM161.565 82.0752C164.363 82.0752 166.5 82.6947 168.067 83.8373L169.245 82.2213C167.239 80.7584 164.648 80.0752 161.565 80.0752V82.0752ZM168.067 83.8373C169.631 84.9777 170.664 86.6128 171.14 88.8228L173.095 88.4017C172.529 85.7731 171.254 83.6862 169.245 82.2213L168.067 83.8373ZM172.944 89.1754C176.182 84.4233 180.619 82.0752 186.354 82.0752V80.0752C179.955 80.0752 174.901 82.7519 171.291 88.0491L172.944 89.1754ZM239.952 85.2625L239.254 85.9788L239.259 85.9833L239.952 85.2625ZM242.855 98.6058L241.868 98.4492L241.868 98.4498L242.855 98.6058ZM242.688 99.6666V100.667H243.542L243.676 99.8225L242.688 99.6666ZM213.266 99.6666V98.6666H211.958L212.301 99.9287L213.266 99.6666ZM230.573 102.235L230.613 101.236L230.27 101.222L229.992 101.421L230.573 102.235ZM241.683 102.681L242.563 103.155L243.322 101.746L241.723 101.682L241.683 102.681ZM234.146 109.381L234.549 110.296L234.557 110.292L234.146 109.381ZM207.236 108.432L207.769 107.586L207.769 107.586L207.236 108.432ZM208.52 85.4858L207.957 84.6593L207.954 84.6615L208.52 85.4858ZM213.991 93.0786L213.113 92.6013L212.31 94.0786H213.991V93.0786ZM232.806 93.0786V94.0786H233.86L233.805 93.0261L232.806 93.0786ZM230.573 89.7847L230.062 90.6442L230.075 90.6523L230.089 90.6599L230.573 89.7847ZM225.716 82.0752C232.242 82.0752 236.666 83.4572 239.254 85.9788L240.65 84.5461C237.507 81.4848 232.44 80.0752 225.716 80.0752V82.0752ZM239.259 85.9833C241.82 88.446 242.813 92.4885 241.868 98.4492L243.843 98.7624C244.833 92.5149 243.89 87.6619 240.645 84.5416L239.259 85.9833ZM241.868 98.4498L241.7 99.5106L243.676 99.8225L243.843 98.7617L241.868 98.4498ZM242.688 98.6666H213.266V100.667H242.688V98.6666ZM212.301 99.9287C212.794 101.746 213.991 103.093 215.774 103.958C217.519 104.804 219.816 105.189 222.589 105.189V103.189C219.965 103.189 218.01 102.819 216.647 102.158C215.322 101.516 214.556 100.601 214.231 99.4044L212.301 99.9287ZM222.589 105.189C226.187 105.189 229.09 104.523 231.154 103.048L229.992 101.421C228.408 102.552 225.988 103.189 222.589 103.189V105.189ZM230.533 103.234L241.643 103.681L241.723 101.682L230.613 101.236L230.533 103.234ZM240.802 102.207C239.359 104.889 237.027 106.982 233.734 108.47L234.557 110.292C238.187 108.653 240.881 106.28 242.563 103.155L240.802 102.207ZM233.742 108.466C230.443 109.921 226.346 110.67 221.417 110.67V112.67C226.537 112.67 230.926 111.893 234.549 110.296L233.742 108.466ZM221.417 110.67C215.489 110.67 210.974 109.606 207.769 107.586L206.703 109.278C210.347 111.575 215.285 112.67 221.417 112.67V110.67ZM207.769 107.586C204.664 105.628 203.1 102.689 203.1 98.6058H201.1C201.1 103.306 202.96 106.918 206.703 109.278L207.769 107.586ZM203.1 98.6058C203.1 93.0835 205.113 89.0395 209.086 86.31L207.954 84.6615C203.367 87.8128 201.1 92.5155 201.1 98.6058H203.1ZM209.083 86.3123C213.184 83.5196 218.698 82.0752 225.716 82.0752V80.0752C218.441 80.0752 212.491 81.5712 207.957 84.6593L209.083 86.3123ZM224.543 87.5564C219.006 87.5564 215.012 89.1052 213.113 92.6013L214.87 93.556C216.246 91.0224 219.287 89.5564 224.543 89.5564V87.5564ZM213.991 94.0786H232.806V92.0786H213.991V94.0786ZM233.805 93.0261C233.709 91.2132 232.723 89.8302 231.056 88.9094L230.089 90.6599C231.252 91.3024 231.754 92.1153 231.807 93.1312L233.805 93.0261ZM231.084 88.9251C229.482 87.9727 227.261 87.5564 224.543 87.5564V89.5564C227.11 89.5564 228.909 89.959 230.062 90.6442L231.084 88.9251ZM246.602 84.9833L245.636 84.7261L245.319 85.9158L246.548 85.9819L246.602 84.9833ZM280.044 73.7057L279.571 74.5869L279.576 74.5892L280.044 73.7057ZM282.221 87.384L282.929 88.0912L282.936 88.0831L282.221 87.384ZM274.294 92.1295L273.908 91.207L273.907 91.2073L274.294 92.1295ZM269.604 94.3627L269.067 93.5191L269.067 93.5191L269.604 94.3627ZM268.152 96.1493L267.176 95.9323L267.174 95.9427L267.172 95.9532L268.152 96.1493ZM268.097 96.4284V97.4284H268.916L269.077 96.6245L268.097 96.4284ZM257.601 96.4284L256.612 96.2764L256.435 97.4284H257.601V96.4284ZM257.712 95.7026L258.701 95.8547L258.701 95.8492L257.712 95.7026ZM259.778 90.8454L259.027 90.1853L259.027 90.1853L259.778 90.8454ZM265.361 87.6631L265.045 86.7145L265.041 86.7158L265.361 87.6631ZM272.172 84.9275L271.639 84.0813L271.62 84.0935L271.601 84.1066L272.172 84.9275ZM271.781 80.8519L271.401 81.7766L271.401 81.7766L271.781 80.8519ZM260.671 81.5219L260.195 80.6425L260.187 80.6468L260.671 81.5219ZM256.986 85.5416L256.933 86.5402L257.64 86.5782L257.911 85.9234L256.986 85.5416ZM254.474 111L253.487 110.841L253.3 112H254.474V111ZM256.205 100.281V99.2807H255.353L255.218 100.121L256.205 100.281ZM268.32 100.281L269.307 100.44L269.494 99.2807H268.32V100.281ZM266.589 111V112H267.441L267.576 111.159L266.589 111ZM247.568 85.2405C248.733 80.8651 251.144 77.6487 254.809 75.5195L253.804 73.7901C249.653 76.2017 246.928 79.871 245.636 84.7261L247.568 85.2405ZM254.809 75.5195C258.535 73.3547 263.044 72.2492 268.376 72.2492V70.2492C262.765 70.2492 257.894 71.4141 253.804 73.7901L254.809 75.5195ZM268.376 72.2492C272.995 72.2492 276.708 73.0504 279.571 74.5869L280.517 72.8245C277.276 71.0856 273.21 70.2492 268.376 70.2492V72.2492ZM279.576 74.5892C280.999 75.3438 282.013 76.2536 282.675 77.2976C283.334 78.3375 283.678 79.566 283.678 81.0194H285.678C285.678 79.2346 285.25 77.6252 284.364 76.2272C283.481 74.8332 282.178 73.7053 280.512 72.8222L279.576 74.5892ZM283.678 81.0194C283.678 83.3538 282.943 85.2157 281.506 86.6849L282.936 88.0831C284.775 86.2025 285.678 83.8213 285.678 81.0194H283.678ZM281.514 86.6769C280.012 88.1796 277.508 89.7007 273.908 91.207L274.68 93.052C278.374 91.5063 281.156 89.8638 282.929 88.0911L281.514 86.6769ZM273.907 91.2073C271.604 92.1733 269.967 92.9466 269.067 93.5191L270.141 95.2064C270.879 94.7367 272.368 94.0212 274.68 93.0517L273.907 91.2073ZM269.067 93.5191C268.118 94.1229 267.403 94.9122 267.176 95.9323L269.129 96.3662C269.2 96.0465 269.452 95.6447 270.141 95.2064L269.067 93.5191ZM267.172 95.9532L267.116 96.2323L269.077 96.6245L269.133 96.3454L267.172 95.9532ZM268.097 95.4284H257.601V97.4284H268.097V95.4284ZM258.589 96.5805L258.701 95.8547L256.724 95.5506L256.612 96.2764L258.589 96.5805ZM258.701 95.8492C258.978 93.9836 259.605 92.5576 260.529 91.5056L259.027 90.1853C257.792 91.5898 257.042 93.4019 256.723 95.5561L258.701 95.8492ZM260.529 91.5056C261.437 90.4721 263.102 89.4824 265.681 88.6105L265.041 86.7158C262.335 87.6305 260.277 88.7622 259.027 90.1853L260.529 91.5056ZM265.677 88.6118C267.529 87.9946 269.039 87.4524 270.2 86.986C271.337 86.5293 272.213 86.1171 272.743 85.7484L271.601 84.1066C271.275 84.3334 270.588 84.6749 269.455 85.1301C268.345 85.5755 266.878 86.1035 265.045 86.7145L265.677 88.6118ZM272.705 85.7737C273.799 85.0846 274.679 84.1529 274.679 82.9176H272.679C272.679 83.0967 272.555 83.5049 271.639 84.0813L272.705 85.7737ZM274.679 82.9176C274.679 81.4397 273.55 80.4988 272.162 79.9272L271.401 81.7766C272.543 82.2472 272.679 82.6834 272.679 82.9176H274.679ZM272.162 79.9272C270.741 79.342 269.039 79.0703 267.092 79.0703V81.0703C268.866 81.0703 270.291 81.3197 271.401 81.7766L272.162 79.9272ZM267.092 79.0703C264.469 79.0703 262.157 79.5796 260.195 80.6426L261.147 82.4012C262.758 81.5287 264.727 81.0703 267.092 81.0703V79.0703ZM260.187 80.6468C258.256 81.715 256.863 83.2211 256.062 85.1599L257.911 85.9234C258.524 84.4379 259.587 83.2642 261.155 82.3969L260.187 80.6468ZM257.04 84.5431L246.656 83.9848L246.548 85.9819L256.933 86.5402L257.04 84.5431ZM255.461 111.159L257.192 100.44L255.218 100.121L253.487 110.841L255.461 111.159ZM256.205 101.281H268.32V99.2807H256.205V101.281ZM267.333 100.121L265.602 110.841L267.576 111.159L269.307 100.44L267.333 100.121ZM266.589 110H254.474V112H266.589V110Z" fill="white"/>
</svg>
